<?xml version="1.0" encoding="UTF-8" standalone="no"?>
<!-- Created with Inkscape (http://www.inkscape.org/) -->

<svg
   width="2313.6016"
   height="348.28903"
   viewBox="0 0 2313.6016 348.28903"
   version="1.1"
   id="svg5"
   inkscape:version="1.2.1 (9c6d41e410, 2022-07-14)"
   sodipodi:docname="logo.svg"
   inkscape:export-filename="..\..\..\..\Desktop\logo.png"
   inkscape:export-xdpi="96"
   inkscape:export-ydpi="96"
   xmlns:inkscape="http://www.inkscape.org/namespaces/inkscape"
   xmlns:sodipodi="http://sodipodi.sourceforge.net/DTD/sodipodi-0.dtd"
   xmlns="http://www.w3.org/2000/svg"
   xmlns:svg="http://www.w3.org/2000/svg"
   xmlns:rdf="http://www.w3.org/1999/02/22-rdf-syntax-ns#"
   xmlns:cc="http://creativecommons.org/ns#"
   xmlns:dc="http://purl.org/dc/elements/1.1/">
  <title
     id="title11101">MotionScript logo</title>
  <sodipodi:namedview
     id="namedview7"
     pagecolor="#505050"
     bordercolor="#ffffff"
     borderopacity="1"
     inkscape:showpageshadow="0"
     inkscape:pageopacity="0"
     inkscape:pagecheckerboard="1"
     inkscape:deskcolor="#505050"
     inkscape:document-units="px"
     showgrid="false"
     inkscape:zoom="0.45556828"
     inkscape:cx="746.32063"
     inkscape:cy="272.18752"
     inkscape:window-width="2560"
     inkscape:window-height="1017"
     inkscape:window-x="-8"
     inkscape:window-y="-8"
     inkscape:window-maximized="1"
     inkscape:current-layer="layer1" />
  <defs
     id="defs2">
    <inkscape:path-effect
       effect="powerstroke"
       id="path-effect1894"
       is_visible="true"
       lpeversion="1"
       offset_points="2,2.4"
       not_jump="false"
       sort_points="true"
       interpolator_type="CubicBezierJohan"
       interpolator_beta="0.2"
       start_linecap_type="zerowidth"
       linejoin_type="extrp_arc"
       miter_limit="4"
       scale_width="1"
       end_linecap_type="zerowidth" />
  </defs>
  <g
     inkscape:label="Camada 1"
     inkscape:groupmode="layer"
     id="layer1"
     transform="translate(-763.19922,-905.85547)">
    <path
       id="text186"
       style="font-style:normal;font-variant:normal;font-weight:800;font-stretch:normal;font-size:384px;font-family:'Nunito Sans';-inkscape-font-specification:'Nunito Sans, Ultra-Bold';font-variant-ligatures:normal;font-variant-caps:normal;font-variant-numeric:normal;font-variant-east-asian:normal;fill:#d42461;fill-opacity:1"
       d="M 2605.6309,905.85547 V 960 h 62.5937 v -54.14453 z m -476.1602,4.22461 c -21.76,0 -40.9596,3.58398 -57.5996,10.75195 -16.384,7.16797 -29.1844,17.27997 -38.4004,30.33594 -9.216,12.79997 -13.8242,27.77579 -13.8242,44.92773 0,39.936 24.1922,65.0237 72.5762,75.2637 l 43.3925,9.2168 c 14.08,3.072 23.9364,6.7847 29.5684,11.1367 5.632,4.352 8.4473,10.2401 8.4473,17.6641 0,8.7037 -4.0954,15.9987 -12.2871,21.8867 -7.936,5.632 -21.1208,8.4492 -39.5528,8.4492 -16.896,0 -33.1516,-2.4329 -48.7676,-7.2969 -15.3597,-4.864 -29.0559,-11.5207 -41.0879,-19.9687 l -17.2812,46.8496 c 12.544,9.216 28.1616,16.5107 46.8496,21.8867 18.944,5.376 39.0391,8.0644 60.2871,8.0644 22.528,0 41.9832,-3.4551 58.3672,-10.3671 16.64,-7.168 29.4404,-17.0244 38.4004,-29.5684 9.216,-12.8 13.8242,-27.6489 13.8242,-44.5449 0,-37.888 -24.8321,-62.207 -74.4961,-72.959 l -43.3926,-9.2168 c -13.3117,-2.816 -22.6552,-6.5287 -28.0312,-11.1367 -5.376,-4.608 -8.0645,-10.6229 -8.0645,-18.0469 0,-9.98397 4.3527,-18.04743 13.0567,-24.1914 8.96,-6.4 21.5048,-9.60157 37.6328,-9.60157 29.952,0 55.424,8.321 76.416,24.96094 l 17.2793,-43.77539 c -10.752,-9.72797 -24.3211,-17.28025 -40.7051,-22.65625 -16.384,-5.37597 -33.9194,-8.06445 -52.6074,-8.06445 z m -1366.27148,4.22461 v 270.71871 h 53.75976 v -163.9668 l 69.50391,123.2637 h 33.4082 l 69.88868,-124.416 v 165.1191 h 54.14453 V 914.30469 H 995.13477 L 904.12695,1080.5762 812.73633,914.30469 Z m 557.18358,26.8789 v 55.29688 h -35.7109 v 43.39063 h 35.7109 v 72.1934 c 0,51.4557 26.4963,77.1835 79.4883,77.1835 7.168,0 14.4647,-0.8955 21.8887,-2.6875 7.424,-1.536 13.8232,-3.7133 19.1992,-6.5293 l -8.4473,-42.2382 c -4.352,1.28 -8.449,2.3023 -12.289,3.0703 -3.584,0.768 -7.0392,1.1523 -10.3672,1.1523 -11.008,0 -19.0714,-2.6884 -24.1914,-8.0644 -4.864,-5.376 -7.2969,-13.4394 -7.2969,-24.1914 v -69.8887 h 55.6797 v -43.39063 h -55.6797 v -55.29688 z m 1635.8418,0 v 55.29688 h -35.7129 v 43.39063 h 35.7129 v 72.1934 c 0,51.4557 26.4963,77.1835 79.4883,77.1835 7.168,0 14.4627,-0.8955 21.8867,-2.6875 7.424,-1.536 13.8252,-3.7133 19.2012,-6.5293 l -8.4492,-42.2382 c -4.352,1.28 -8.4474,2.3023 -12.2871,3.0703 -3.584,0.768 -7.0412,1.1523 -10.3692,1.1523 -11.008,0 -19.0714,-2.6884 -24.1914,-8.0644 -4.864,-5.376 -7.2949,-13.4394 -7.2949,-24.1914 v -69.8887 h 55.6797 v -43.39063 h -55.6797 v -55.29688 z m -375.1699,50.30469 -16.8945,1.15234 c -29.44,2.304 -48.6416,14.46278 -57.6016,36.47848 v -32.63863 h -56.8301 v 188.54293 h 59.1348 v -97.5351 c 0,-26.368 14.3358,-40.9594 43.0078,-43.7754 l 32.6406,-3.457 z M 1656,992.64062 c -20.224,10e-6 -37.8882,3.96837 -52.9922,11.90428 -14.848,7.936 -26.3685,19.3278 -34.5605,34.1758 -8.192,14.592 -12.2891,31.8721 -12.2891,51.8398 0,20.224 4.0971,37.7595 12.2891,52.6075 8.192,14.592 19.7125,25.9838 34.5605,34.1758 15.104,7.9357 32.7682,11.9042 52.9922,11.9042 20.224,0 37.7594,-3.9685 52.6074,-11.9042 15.104,-8.192 26.7514,-19.5838 34.9434,-34.1758 8.448,-14.848 12.6719,-32.3835 12.6719,-52.6075 0,-19.9677 -4.2239,-37.2478 -12.6719,-51.8398 -8.192,-14.848 -19.8394,-26.2398 -34.9434,-34.1758 -14.848,-7.93591 -32.3834,-11.90427 -52.6074,-11.90428 z m 254.207,0 c -13.312,0 -25.3437,2.68657 -36.0957,8.06248 -10.752,5.376 -19.3285,13.1858 -25.7285,23.4258 v -27.64843 h -56.832 v 188.54293 h 57.9844 v -105.2148 c 0,-12.8 3.5839,-23.0407 10.7519,-30.7207 7.424,-7.68 17.2804,-11.5195 29.5684,-11.5195 9.472,0 16.6399,2.944 21.5039,8.832 4.864,5.632 7.2969,14.9755 7.2968,28.0312 v 110.5918 h 57.9825 v -113.2793 c 0,-26.8797 -5.504,-46.7195 -16.5117,-59.5195 -11.008,-13.05594 -27.648,-19.58397 -49.92,-19.58398 z m 447.7442,0 c -20.48,10e-6 -38.3998,3.96837 -53.7598,11.90428 -15.104,7.68 -26.7514,18.8143 -34.9434,33.4063 -8.1917,14.592 -12.289,32.0006 -12.289,52.2246 0,20.224 4.0973,37.7594 12.289,52.6074 8.192,14.848 19.8394,26.3686 34.9434,34.5606 15.36,7.9357 33.2798,11.9042 53.7598,11.9042 12.032,0 24.1927,-1.7929 36.4804,-5.3769 12.288,-3.84 22.2712,-9.0862 29.9512,-15.7422 l -16.1269,-39.9375 c -6.4,5.376 -13.6967,9.4731 -21.8887,12.2891 -7.936,2.816 -15.4883,4.2226 -22.6563,4.2226 -15.1037,0 -26.8801,-4.735 -35.3281,-14.207 -8.192,-9.728 -12.2871,-23.0396 -12.2871,-39.9356 0,-17.1517 4.0951,-30.3367 12.2871,-39.5527 8.448,-9.472 20.2244,-14.207 35.3281,-14.207 7.424,0 15.1051,1.5354 23.0411,4.6074 7.9357,2.816 15.1039,6.7843 21.5039,11.9043 l 16.1269,-39.9355 c -7.68,-6.656 -17.6632,-11.7774 -29.9512,-15.36138 -12.2877,-3.58397 -24.4484,-5.37499 -36.4804,-5.375 z m 469.248,0 c -13.312,0 -25.3437,2.94396 -36.0957,8.83208 -10.496,5.632 -18.3038,13.311 -23.4238,23.039 v -28.03123 h -56.832 v 257.66403 h 57.9843 v -94.4648 c 5.632,8.96 13.5686,16.1279 23.8086,21.5039 10.496,5.376 22.0146,8.0644 34.5586,8.0644 16.384,0 30.7198,-3.9685 43.0078,-11.9042 12.544,-8.192 22.2736,-19.5838 29.1856,-34.1758 6.912,-14.848 10.3672,-32.3835 10.3672,-52.6075 0,-20.2237 -3.4552,-37.6326 -10.3672,-52.2246 -6.912,-14.5917 -16.6416,-25.855 -29.1856,-33.791 -12.288,-7.93591 -26.6238,-11.90427 -43.0078,-11.90428 z m -1364.7363,3.83985 v 188.54293 h 57.9844 V 996.48047 Z m 1145.4726,0 v 188.54293 h 57.9844 V 996.48047 Z M 1656,1036.0312 c 12.288,0 22.2712,4.4815 29.9512,13.4415 7.936,8.7037 11.9043,22.4001 11.9043,41.0878 0,18.944 -3.9683,32.8955 -11.9043,41.8555 -7.68,8.96 -17.6632,13.4395 -29.9512,13.4395 -12.288,0 -22.2731,-4.4795 -29.9531,-13.4395 -7.68,-8.96 -11.5196,-22.9115 -11.5196,-41.8555 0,-18.6877 3.8396,-32.3841 11.5196,-41.0878 7.68,-8.96 17.6651,-13.4415 29.9531,-13.4415 z m 1153.9199,0 c 12.288,0 22.2712,4.4815 29.9512,13.4415 7.68,8.7037 11.5215,22.4001 11.5215,41.0878 0,18.944 -3.8415,32.8955 -11.5215,41.8555 -7.68,8.96 -17.6632,13.4395 -29.9512,13.4395 -12.544,0 -22.6559,-4.4795 -30.3359,-13.4395 -7.68,-8.96 -11.5195,-22.9115 -11.5195,-41.8555 0,-18.6877 3.8395,-32.3841 11.5195,-41.0878 7.68,-8.96 17.7919,-13.4415 30.3359,-13.4415 z" />
    <circle
       style="fill:#fa5583;fill-opacity:0.7;stroke-width:1.45443"
       id="path1114"
       cx="1076.9366"
       cy="1052.3173"
       r="16.289635" />
    <circle
       style="fill:#fa5583;fill-opacity:1;stroke-width:1.45443"
       id="circle1170"
       cx="1207.7401"
       cy="1153.2648"
       r="23.270906" />
    <circle
       style="fill:#fa5583;fill-opacity:1;stroke-width:1.45443"
       id="circle1172"
       cx="1268.9979"
       cy="1098.6167"
       r="23.270906" />
    <circle
       style="display:inline;fill:#fa5583;fill-opacity:1;stroke-width:0.999997"
       id="circle1174"
       cx="1491.609"
       cy="937.85602"
       r="32" />
    <circle
       style="fill:#fa5583;fill-opacity:0.8;stroke-width:1.45443"
       id="circle1366"
       cx="1143.7528"
       cy="1098.6167"
       r="18.616726" />
    <path
       style="fill:none;fill-opacity:0.7;stroke:#fa5583;stroke-width:11.6355;stroke-linecap:round;stroke-linejoin:round;stroke-miterlimit:4;stroke-dasharray:23.2709, 23.2709;stroke-dashoffset:0;stroke-opacity:0.8;paint-order:stroke markers fill"
       d="m 1242.6623,1173.5662 c 13.6968,-12.5487 13.1075,-13.0403 26.3356,-17.6305"
       id="path7312-1"
       sodipodi:nodetypes="cc" />
    <path
       style="fill:none;fill-opacity:0.7;stroke:#fa5583;stroke-width:11.6355;stroke-linecap:round;stroke-linejoin:round;stroke-miterlimit:4;stroke-dasharray:23.2709, 23.2709;stroke-dashoffset:0;stroke-opacity:0.8;paint-order:stroke markers fill"
       d="m 1172.8181,1173.5662 c -13.6968,-12.5487 -13.1075,-13.0403 -26.3356,-17.6305"
       id="path11043"
       sodipodi:nodetypes="cc" />
  </g>
  <metadata
     id="metadata11099">
    <rdf:RDF>
      <cc:Work
         rdf:about="">
        <dc:title>MotionScript logo</dc:title>
      </cc:Work>
    </rdf:RDF>
  </metadata>
</svg>
